<svg width="121.000000" height="36.000000" viewBox="0 0 121 36" fill="none" xmlns="http://www.w3.org/2000/svg" xmlns:xlink="http://www.w3.org/1999/xlink">
	<desc>
			Created with Pixso.
	</desc>
	<defs>
		<clipPath id="clip0_64">
			<rect id="Theme=Black, Store=App Store 1" width="121.000000" height="36.000000" fill="white" fill-opacity="0"/>
		</clipPath>
	</defs>
	<rect id="Theme=Black, Store=App Store 1" width="121.000000" height="36.000000" fill="#FFFFFF" fill-opacity="0"/>
	<g clip-path="url(#clip0_64)">
		<path id="Vector" d="M0 4.8C0 2.14 2.14 0 4.78 0L116.21 0C118.85 0 121 2.14 121 4.8L121 31.2C121 33.85 118.85 36 116.21 36L4.78 36C2.14 36 0 33.85 0 31.2L0 4.8Z" fill="#000000" fill-opacity="1.000000" fill-rule="nonzero"/>
		<path id="Vector" d="M0 31.2L0 4.8C0 2.14 2.14 0 4.78 0L116.21 0C118.85 0 121 2.14 121 4.8L121 31.2C121 33.85 118.85 36 116.21 36L4.78 36C2.14 36 0 33.85 0 31.2ZM0.71 31.2L0.71 4.8C0.71 2.54 2.53 0.71 4.78 0.71L116.21 0.71C118.46 0.71 120.28 2.54 120.28 4.8L120.28 31.2C120.28 33.45 118.46 35.28 116.21 35.28L4.78 35.28C2.53 35.28 0.71 33.45 0.71 31.2Z" fill="#FFFFFF" fill-opacity="0.300000" fill-rule="evenodd"/>
		<path id="Vector" d="M27.34 18.73C27.33 16.62 28.28 15.03 30.2 13.86C29.13 12.31 27.5 11.46 25.35 11.29C23.32 11.13 21.1 12.48 20.29 12.48C19.43 12.48 17.46 11.35 15.91 11.35C12.72 11.4 9.32 13.9 9.32 19C9.32 20.51 9.6 22.07 10.15 23.67C10.88 25.78 13.53 30.95 16.28 30.86C17.73 30.83 18.75 29.84 20.62 29.84C22.45 29.84 23.39 30.86 25 30.86C27.78 30.82 30.17 26.13 30.87 24.01C27.14 22.24 27.34 18.84 27.34 18.73ZM24.1 9.29C25.66 7.43 25.52 5.73 25.47 5.12C24.09 5.21 22.5 6.07 21.59 7.13C20.58 8.27 20 9.68 20.12 11.26C21.61 11.38 22.98 10.61 24.1 9.29Z" fill="#FFFFFF" fill-opacity="1.000000" fill-rule="nonzero"/>
		<path id="Vector" d="M44.18 26.05L42.59 26.05L41.72 23.3L38.71 23.3L37.88 26.05L36.34 26.05L39.33 16.69L41.17 16.69L44.18 26.05ZM41.46 22.15L40.68 19.7C40.6 19.45 40.44 18.87 40.21 17.94L40.18 17.94C40.09 18.34 39.95 18.93 39.74 19.7L38.97 22.15L41.46 22.15Z" fill="#FFFFFF" fill-opacity="1.000000" fill-rule="nonzero"/>
		<path id="Vector" d="M51.86 22.59C51.86 23.74 51.55 24.65 50.93 25.31C50.38 25.9 49.7 26.2 48.88 26.2C48 26.2 47.37 25.88 46.98 25.24L46.95 25.24L46.95 28.8L45.47 28.8L45.47 21.52C45.47 20.8 45.45 20.06 45.41 19.3L46.72 19.3L46.8 20.37L46.83 20.37C47.33 19.57 48.08 19.16 49.09 19.16C49.88 19.16 50.54 19.48 51.06 20.11C51.59 20.74 51.86 21.56 51.86 22.59ZM50.34 22.65C50.34 21.99 50.2 21.45 49.9 21.02C49.58 20.58 49.15 20.36 48.61 20.36C48.24 20.36 47.91 20.48 47.61 20.72C47.31 20.97 47.12 21.29 47.02 21.69C46.98 21.87 46.96 22.03 46.96 22.15L46.96 23.27C46.96 23.76 47.1 24.17 47.4 24.51C47.7 24.85 48.09 25.02 48.57 25.02C49.13 25.02 49.56 24.8 49.87 24.37C50.19 23.93 50.34 23.36 50.34 22.65Z" fill="#FFFFFF" fill-opacity="1.000000" fill-rule="nonzero"/>
		<path id="Vector" d="M59.55 22.59C59.55 23.74 59.24 24.65 58.63 25.31C58.08 25.9 57.39 26.2 56.58 26.2C55.7 26.2 55.06 25.88 54.68 25.24L54.65 25.24L54.65 28.8L53.16 28.8L53.16 21.52C53.16 20.8 53.15 20.06 53.11 19.3L54.42 19.3L54.5 20.37L54.53 20.37C55.02 19.57 55.77 19.16 56.78 19.16C57.57 19.16 58.23 19.48 58.76 20.11C59.29 20.74 59.55 21.56 59.55 22.59ZM58.04 22.65C58.04 21.99 57.89 21.45 57.6 21.02C57.27 20.58 56.84 20.36 56.3 20.36C55.93 20.36 55.6 20.48 55.3 20.72C55.01 20.97 54.81 21.29 54.72 21.69C54.67 21.87 54.65 22.03 54.65 22.15L54.65 23.27C54.65 23.76 54.8 24.17 55.1 24.51C55.39 24.85 55.78 25.02 56.26 25.02C56.82 25.02 57.26 24.8 57.57 24.37C57.88 23.93 58.04 23.36 58.04 22.65Z" fill="#FFFFFF" fill-opacity="1.000000" fill-rule="nonzero"/>
		<path id="Vector" d="M68.15 23.42C68.15 24.22 67.88 24.87 67.33 25.37C66.73 25.91 65.88 26.18 64.8 26.18C63.8 26.18 63 25.99 62.4 25.6L62.74 24.35C63.39 24.75 64.11 24.95 64.89 24.95C65.45 24.95 65.89 24.82 66.2 24.57C66.51 24.31 66.67 23.97 66.67 23.55C66.67 23.17 66.54 22.85 66.28 22.59C66.02 22.33 65.6 22.09 65 21.86C63.38 21.25 62.57 20.36 62.57 19.18C62.57 18.41 62.85 17.78 63.42 17.29C63.99 16.8 64.74 16.56 65.69 16.56C66.53 16.56 67.24 16.7 67.8 17L67.42 18.22C66.9 17.93 66.31 17.79 65.65 17.79C65.13 17.79 64.72 17.92 64.42 18.18C64.18 18.41 64.05 18.69 64.05 19.03C64.05 19.4 64.19 19.7 64.48 19.94C64.73 20.16 65.18 20.4 65.83 20.66C66.63 20.99 67.21 21.37 67.59 21.8C67.97 22.23 68.15 22.78 68.15 23.42Z" fill="#FFFFFF" fill-opacity="1.000000" fill-rule="nonzero"/>
		<path id="Vector" d="M73.07 20.43L71.43 20.43L71.43 23.7C71.43 24.53 71.72 24.95 72.3 24.95C72.56 24.95 72.78 24.93 72.96 24.88L73 26.02C72.7 26.13 72.32 26.18 71.84 26.18C71.25 26.18 70.8 26 70.46 25.64C70.14 25.28 69.97 24.68 69.97 23.83L69.97 20.42L68.99 20.42L68.99 19.3L69.97 19.3L69.97 18.07L71.43 17.62L71.43 19.3L73.07 19.3L73.07 20.43Z" fill="#FFFFFF" fill-opacity="1.000000" fill-rule="nonzero"/>
		<path id="Vector" d="M80.46 22.62C80.46 23.66 80.17 24.51 79.58 25.17C78.96 25.86 78.15 26.2 77.13 26.2C76.15 26.2 75.36 25.87 74.78 25.21C74.2 24.56 73.91 23.73 73.91 22.73C73.91 21.68 74.21 20.83 74.81 20.16C75.41 19.5 76.22 19.16 77.24 19.16C78.22 19.16 79.01 19.49 79.6 20.15C80.17 20.79 80.46 21.61 80.46 22.62ZM78.92 22.67C78.92 22.04 78.79 21.51 78.52 21.07C78.21 20.53 77.76 20.26 77.18 20.26C76.59 20.26 76.13 20.53 75.82 21.07C75.55 21.51 75.42 22.05 75.42 22.7C75.42 23.32 75.55 23.85 75.82 24.29C76.14 24.83 76.59 25.1 77.17 25.1C77.74 25.1 78.18 24.83 78.51 24.28C78.78 23.83 78.92 23.29 78.92 22.67Z" fill="#FFFFFF" fill-opacity="1.000000" fill-rule="nonzero"/>
		<path id="Vector" d="M85.29 20.62C85.14 20.59 84.99 20.58 84.82 20.58C84.3 20.58 83.89 20.78 83.61 21.18C83.36 21.53 83.24 21.97 83.24 22.51L83.24 26.05L81.75 26.05L81.77 21.43C81.77 20.65 81.75 19.94 81.71 19.3L83.01 19.3L83.06 20.59L83.1 20.59C83.26 20.15 83.51 19.79 83.84 19.52C84.18 19.28 84.53 19.16 84.92 19.16C85.06 19.16 85.18 19.17 85.29 19.19L85.29 20.62Z" fill="#FFFFFF" fill-opacity="1.000000" fill-rule="nonzero"/>
		<path id="Vector" d="M91.94 22.35C91.94 22.62 91.92 22.85 91.88 23.03L87.42 23.03C87.44 23.7 87.66 24.21 88.07 24.56C88.45 24.88 88.93 25.03 89.53 25.03C90.19 25.03 90.79 24.93 91.33 24.71L91.57 25.76C90.93 26.03 90.19 26.17 89.32 26.17C88.29 26.17 87.47 25.86 86.88 25.25C86.29 24.63 85.99 23.81 85.99 22.77C85.99 21.75 86.27 20.91 86.82 20.23C87.4 19.51 88.18 19.15 89.16 19.15C90.12 19.15 90.85 19.51 91.35 20.23C91.74 20.81 91.94 21.51 91.94 22.35ZM90.52 21.97C90.53 21.52 90.43 21.14 90.23 20.81C89.97 20.4 89.58 20.19 89.05 20.19C88.56 20.19 88.17 20.39 87.86 20.8C87.62 21.12 87.47 21.51 87.42 21.97L90.52 21.97L90.52 21.97Z" fill="#FFFFFF" fill-opacity="1.000000" fill-rule="nonzero"/>
		<path id="Vector" d="M37.87 10.78L38.64 10.78C39.38 10.78 39.81 11.12 39.81 11.68L39.81 11.69C39.81 12.21 39.36 12.55 38.66 12.55C37.95 12.55 37.5 12.27 37.44 11.77L37.44 11.74L36.62 11.74L36.62 11.79C36.68 12.68 37.47 13.29 38.66 13.29C39.82 13.29 40.67 12.62 40.67 11.73L40.67 11.72C40.67 10.99 40.22 10.48 39.5 10.39L39.5 10.36C40.1 10.22 40.51 9.71 40.51 9.11L40.51 9.11C40.51 8.27 39.77 7.69 38.68 7.69C37.55 7.69 36.82 8.25 36.76 9.17L36.76 9.22L37.56 9.22L37.56 9.17C37.63 8.7 38.02 8.43 38.66 8.43C39.3 8.43 39.68 8.72 39.68 9.2L39.68 9.2C39.68 9.72 39.26 10.08 38.62 10.08L37.87 10.08L37.87 10.78Z" fill="#FFFFFF" fill-opacity="1.000000" fill-rule="nonzero"/>
		<path id="Vector" d="M43.38 13.27C43.9 13.27 44.35 13 44.58 12.57L44.6 12.57L44.6 13.2L45.4 13.2L45.4 10.48C45.4 9.69 44.8 9.18 43.84 9.18C42.87 9.18 42.28 9.7 42.23 10.38L42.22 10.42L42.98 10.42L42.99 10.38C43.06 10.07 43.35 9.85 43.81 9.85C44.31 9.85 44.6 10.11 44.6 10.54L44.6 10.84L43.53 10.9C42.59 10.96 42.06 11.38 42.06 12.07L42.06 12.07C42.06 12.78 42.59 13.27 43.38 13.27ZM42.88 12.06L42.88 12.05C42.88 11.71 43.15 11.5 43.63 11.47L44.6 11.41L44.6 11.72C44.6 12.23 44.16 12.62 43.6 12.62C43.16 12.62 42.88 12.4 42.88 12.06Z" fill="#FFFFFF" fill-opacity="1.000000" fill-rule="nonzero"/>
		<path id="Vector" d="M49.7 9.89L49.7 9.25L47.1 9.25L47.1 13.2L47.91 13.2L47.91 9.89L49.7 9.89Z" fill="#FFFFFF" fill-opacity="1.000000" fill-rule="nonzero"/>
		<path id="Vector" d="M51.22 14.51L52.03 14.51L52.03 12.53L52.05 12.53C52.28 12.99 52.73 13.27 53.29 13.27C54.27 13.27 54.92 12.48 54.92 11.23L54.92 11.22C54.92 9.96 54.28 9.18 53.28 9.18C52.72 9.18 52.28 9.46 52.05 9.93L52.03 9.93L52.03 9.25L51.22 9.25L51.22 14.51ZM53.07 12.58C52.46 12.58 52.02 12.04 52.02 11.23L52.02 11.22C52.02 10.4 52.45 9.87 53.07 9.87C53.7 9.87 54.1 10.38 54.1 11.22L54.1 11.23C54.1 12.06 53.7 12.58 53.07 12.58Z" fill="#FFFFFF" fill-opacity="1.000000" fill-rule="nonzero"/>
		<path id="Vector" d="M56.82 14.51C57.58 14.51 58 14.2 58.29 13.38L59.75 9.25L58.9 9.25L57.91 12.46L57.88 12.46L56.89 9.25L56.02 9.25L57.45 13.2L57.38 13.39C57.25 13.77 57.04 13.87 56.66 13.87C56.55 13.87 56.46 13.85 56.39 13.84L56.39 14.47C56.49 14.49 56.66 14.51 56.82 14.51Z" fill="#FFFFFF" fill-opacity="1.000000" fill-rule="nonzero"/>
		<path id="Vector" d="M62.53 13.27C63.49 13.27 64.13 12.78 64.13 12.05L64.13 12.04C64.13 11.58 63.84 11.26 63.32 11.16L63.32 11.13C63.75 11.03 64.02 10.7 64.02 10.27L64.02 10.27C64.02 9.59 63.47 9.18 62.56 9.18C61.68 9.18 61.1 9.6 61 10.3L61 10.33L61.77 10.33L61.77 10.3C61.83 10 62.13 9.82 62.55 9.82C62.98 9.82 63.23 10.02 63.23 10.35L63.23 10.36C63.23 10.71 62.99 10.89 62.51 10.89L61.95 10.89L61.95 11.48L62.52 11.48C63.06 11.48 63.32 11.66 63.32 12.04L63.32 12.05C63.32 12.41 63.02 12.63 62.52 12.63C62.08 12.63 61.79 12.46 61.7 12.14L61.68 12.1L60.89 12.1L60.9 12.13C60.97 12.83 61.61 13.27 62.53 13.27Z" fill="#FFFFFF" fill-opacity="1.000000" fill-rule="nonzero"/>
		<path id="Vector" d="M65.68 13.2L66.48 13.2L68.28 10.42L68.31 10.42L68.31 13.2L69.12 13.2L69.12 9.25L68.32 9.25L66.52 12.01L66.48 12.01L66.48 9.25L65.68 9.25L65.68 13.2Z" fill="#FFFFFF" fill-opacity="1.000000" fill-rule="nonzero"/>
		<path id="Vector" d="M73.82 9.25L70.55 9.25L70.55 9.89L71.78 9.89L71.78 13.2L72.59 13.2L72.59 9.89L73.82 9.89L73.82 9.25Z" fill="#FFFFFF" fill-opacity="1.000000" fill-rule="nonzero"/>
		<path id="Vector" d="M76.85 13.27C77.8 13.27 78.41 12.7 78.54 12.08L78.55 12.04L77.78 12.04L77.77 12.07C77.66 12.36 77.35 12.61 76.87 12.61C76.23 12.61 75.82 12.18 75.8 11.43L78.59 11.43L78.59 11.16C78.59 9.97 77.91 9.18 76.81 9.18C75.71 9.18 75 10 75 11.23L75 11.24C75 12.48 75.7 13.27 76.85 13.27ZM76.81 9.84C77.34 9.84 77.72 10.17 77.79 10.86L75.82 10.86C75.89 10.2 76.29 9.84 76.81 9.84Z" fill="#FFFFFF" fill-opacity="1.000000" fill-rule="nonzero"/>
		<path id="Vector" d="M82.52 13.2L84.33 13.2C85.18 13.2 85.71 12.75 85.71 12.06L85.71 12.05C85.71 11.57 85.38 11.22 84.87 11.15L84.87 11.12C85.24 11.05 85.54 10.68 85.54 10.27L85.54 10.26C85.54 9.64 85.07 9.25 84.31 9.25L82.52 9.25L82.52 13.2ZM83.32 10.88L83.32 9.85L84.14 9.85C84.53 9.85 84.74 10.03 84.74 10.35L84.74 10.36C84.74 10.71 84.51 10.88 84.06 10.88L83.32 10.88ZM83.32 12.59L83.32 11.47L84.09 11.47C84.62 11.47 84.88 11.64 84.88 12.02L84.88 12.03C84.88 12.4 84.64 12.59 84.18 12.59L83.32 12.59Z" fill="#FFFFFF" fill-opacity="1.000000" fill-rule="nonzero"/>
	</g>
</svg>
