<svg width="121.000000" height="36.000000" viewBox="0 0 121 36" fill="none" xmlns="http://www.w3.org/2000/svg" xmlns:xlink="http://www.w3.org/1999/xlink">
	<desc>
			Created with Pixso.
	</desc>
	<defs>
		<clipPath id="clip0_86">
			<rect id="Theme=Black, Store=Google Play 1" width="121.000000" height="36.000000" fill="white" fill-opacity="0"/>
		</clipPath>
	</defs>
	<rect id="Theme=Black, Store=Google Play 1" width="121.000000" height="36.000000" fill="#FFFFFF" fill-opacity="0"/>
	<g clip-path="url(#clip0_86)">
		<path id="Vector" d="M0 4.8C0 2.14 2.14 0 4.78 0L116.21 0C118.85 0 121 2.14 121 4.8L121 31.2C121 33.85 118.85 36 116.21 36L4.78 36C2.14 36 0 33.85 0 31.2L0 4.8Z" fill="#000000" fill-opacity="1.000000" fill-rule="nonzero"/>
		<path id="Vector" d="M0 31.2L0 4.8C0 2.14 2.14 0 4.78 0L116.21 0C118.85 0 121 2.14 121 4.8L121 31.2C121 33.85 118.85 36 116.21 36L4.78 36C2.14 36 0 33.85 0 31.2ZM0.71 31.2L0.71 4.8C0.71 2.54 2.53 0.71 4.78 0.71L116.21 0.71C118.46 0.71 120.28 2.54 120.28 4.8L120.28 31.2C120.28 33.45 118.46 35.28 116.21 35.28L4.78 35.28C2.53 35.28 0.71 33.45 0.71 31.2Z" fill="#FFFFFF" fill-opacity="0.300000" fill-rule="evenodd"/>
		<path id="Vector" d="M61.3 19.55C59.15 19.55 57.37 21.24 57.37 23.55C57.37 25.85 59.13 27.56 61.3 27.56C63.48 27.56 65.24 25.87 65.24 23.55C65.24 21.24 63.48 19.55 61.3 19.55ZM61.3 25.96C60.12 25.96 59.1 24.96 59.1 23.54C59.1 22.1 60.13 21.11 61.3 21.11C62.48 21.11 63.51 22.1 63.51 23.54C63.51 24.96 62.48 25.96 61.3 25.96ZM52.75 19.55C50.57 19.55 48.81 21.24 48.81 23.55C48.81 25.85 50.57 27.56 52.75 27.56C54.92 27.56 56.68 25.87 56.68 23.55C56.68 21.24 54.92 19.55 52.75 19.55ZM52.75 25.96C51.57 25.96 50.54 24.96 50.54 23.54C50.54 22.1 51.57 21.11 52.75 21.11C53.93 21.11 54.96 22.1 54.96 23.54C54.96 24.96 53.94 25.96 52.75 25.96ZM42.58 20.79L42.58 22.47L46.55 22.47C46.44 23.42 46.12 24.12 45.65 24.6C45.07 25.19 44.17 25.83 42.58 25.83C40.13 25.83 38.23 23.82 38.23 21.34C38.23 18.85 40.13 16.8 42.58 16.8C43.91 16.8 44.86 17.33 45.58 18.02L46.75 16.82C45.76 15.85 44.43 15.12 42.58 15.12C39.23 15.12 36.42 17.9 36.42 21.3C36.42 24.69 39.23 27.48 42.58 27.48C44.4 27.48 45.74 26.87 46.83 25.74C47.93 24.62 48.27 23.04 48.27 21.77C48.27 21.37 48.23 21.01 48.18 20.71L42.58 20.79ZM84.19 22.09C83.87 21.2 82.86 19.55 80.83 19.55C78.81 19.55 77.15 21.16 77.15 23.55C77.15 25.79 78.81 27.56 81.02 27.56C82.82 27.56 83.85 26.44 84.28 25.79L82.95 24.88C82.5 25.55 81.9 25.98 81.02 25.98C80.14 25.98 79.52 25.58 79.13 24.77L84.36 22.55L84.19 22.09ZM78.87 23.44C78.83 21.9 80.05 21.11 80.91 21.11C81.6 21.11 82.16 21.45 82.37 21.96L78.87 23.44ZM74.62 27.29L76.34 27.29L76.34 15.57L74.62 15.57L74.62 27.29ZM71.81 20.44L71.75 20.44C71.36 19.97 70.63 19.55 69.69 19.55C67.73 19.55 65.95 21.32 65.95 23.55C65.95 25.79 67.75 27.54 69.69 27.54C70.63 27.54 71.36 27.12 71.75 26.63L71.81 26.63L71.81 27.2C71.81 28.73 71 29.55 69.71 29.55C68.66 29.55 68.01 28.77 67.75 28.13L66.25 28.77C66.68 29.83 67.82 31.14 69.71 31.14C71.73 31.14 73.44 29.93 73.44 26.99L73.44 19.8L71.81 19.8L71.81 20.44ZM69.84 25.96C68.66 25.96 67.67 24.96 67.67 23.56C67.67 22.15 68.66 21.13 69.84 21.13C71.01 21.13 71.94 22.15 71.94 23.56C71.94 24.94 71 25.96 69.84 25.96ZM92.22 15.57L88.1 15.57L88.1 27.29L89.82 27.29L89.82 22.85L92.22 22.85C94.13 22.85 96 21.45 96 19.21C96 16.97 94.13 15.57 92.22 15.57ZM92.28 21.22L89.84 21.22L89.84 17.2L92.28 17.2C93.55 17.2 94.3 18.28 94.3 19.21C94.28 20.12 93.55 21.22 92.28 21.22ZM102.88 19.53C101.64 19.53 100.35 20.08 99.82 21.34L101.34 21.98C101.68 21.34 102.28 21.13 102.91 21.13C103.81 21.13 104.71 21.68 104.73 22.64L104.73 22.76C104.41 22.57 103.76 22.3 102.93 22.3C101.29 22.3 99.62 23.23 99.62 24.94C99.62 26.51 100.97 27.52 102.46 27.52C103.63 27.52 104.26 26.99 104.66 26.36L104.71 26.36L104.71 27.27L106.38 27.27L106.38 22.78C106.36 20.71 104.84 19.53 102.88 19.53ZM102.67 25.95C102.11 25.95 101.32 25.66 101.32 24.96C101.32 24.05 102.3 23.71 103.14 23.71C103.89 23.71 104.24 23.88 104.71 24.11C104.58 25.19 103.66 25.95 102.67 25.95ZM112.39 19.8L110.42 24.86L110.37 24.86L108.33 19.8L106.47 19.8L109.54 26.89L107.8 30.86L109.6 30.86L114.3 19.8L112.39 19.8L112.39 19.8ZM96.96 27.29L98.68 27.29L98.68 15.57L96.96 15.57L96.96 27.29Z" fill="#FFFFFF" fill-opacity="1.000000" fill-rule="nonzero"/>
		<path id="Vector" d="M41.62 10.08L41.62 11.82L40.91 11.82L40.91 10.79L37.61 10.79L37.61 11.82L36.9 11.82L36.9 10.08L37.43 10.08C37.61 9.82 37.74 9.46 37.83 8.99C37.91 8.52 37.95 8 37.95 7.45L37.95 5.98L41.09 5.98L41.09 10.08L41.62 10.08ZM40.34 10.08L40.34 6.7L38.7 6.7L38.7 7.58C38.7 8.08 38.66 8.54 38.58 8.97C38.5 9.4 38.39 9.77 38.23 10.08L40.34 10.08Z" fill="#FFFFFF" fill-opacity="1.000000" fill-rule="nonzero"/>
		<path id="Vector" d="M44.66 10.9C44.2 10.9 43.78 10.79 43.4 10.57C43.02 10.35 42.72 10.04 42.5 9.66C42.29 9.27 42.18 8.85 42.18 8.39C42.18 7.93 42.29 7.51 42.5 7.13C42.72 6.74 43.02 6.44 43.4 6.21C43.78 5.99 44.2 5.88 44.66 5.88C45.13 5.88 45.55 5.99 45.92 6.21C46.3 6.44 46.6 6.74 46.82 7.13C47.04 7.51 47.15 7.93 47.15 8.39C47.15 8.85 47.04 9.27 46.82 9.66C46.61 10.04 46.31 10.35 45.93 10.57C45.55 10.79 45.13 10.9 44.66 10.9ZM44.66 10.18C44.98 10.18 45.27 10.11 45.53 9.95C45.8 9.8 46.01 9.59 46.16 9.32C46.31 9.05 46.38 8.74 46.38 8.39C46.38 8.04 46.31 7.73 46.16 7.46C46.01 7.19 45.8 6.98 45.53 6.82C45.27 6.67 44.98 6.59 44.66 6.59C44.35 6.59 44.06 6.67 43.79 6.82C43.53 6.98 43.32 7.19 43.16 7.46C43.01 7.73 42.94 8.04 42.94 8.39C42.94 8.74 43.01 9.05 43.16 9.32C43.32 9.59 43.53 9.8 43.79 9.95C44.06 10.11 44.35 10.18 44.66 10.18Z" fill="#FFFFFF" fill-opacity="1.000000" fill-rule="nonzero"/>
		<path id="Vector" d="M50.2 10.9C49.74 10.9 49.31 10.79 48.93 10.57C48.55 10.35 48.25 10.05 48.03 9.67C47.81 9.28 47.7 8.86 47.7 8.39C47.7 7.92 47.81 7.5 48.03 7.11C48.25 6.73 48.55 6.42 48.93 6.21C49.31 5.99 49.74 5.88 50.2 5.88C50.56 5.88 50.89 5.94 51.19 6.08C51.49 6.21 51.75 6.41 51.98 6.66L51.44 7.18C51.28 6.98 51.09 6.84 50.89 6.74C50.69 6.64 50.46 6.59 50.2 6.59C49.88 6.59 49.59 6.67 49.32 6.82C49.06 6.96 48.85 7.17 48.69 7.45C48.53 7.72 48.46 8.03 48.46 8.39C48.46 8.75 48.53 9.06 48.69 9.34C48.85 9.61 49.06 9.81 49.32 9.96C49.59 10.11 49.88 10.18 50.2 10.18C50.74 10.18 51.19 9.96 51.57 9.51L52.11 10.04C51.88 10.31 51.6 10.52 51.27 10.67C50.95 10.83 50.59 10.9 50.2 10.9Z" fill="#FFFFFF" fill-opacity="1.000000" fill-rule="nonzero"/>
		<path id="Vector" d="M53.92 6.7L52.58 6.7L52.58 5.98L56.01 5.98L56.01 6.7L54.67 6.7L54.67 10.79L53.92 10.79L53.92 6.7Z" fill="#FFFFFF" fill-opacity="1.000000" fill-rule="nonzero"/>
		<path id="Vector" d="M57.25 10.9C57.08 10.9 56.94 10.87 56.83 10.82L56.83 10.08C56.98 10.16 57.11 10.2 57.23 10.2C57.35 10.2 57.45 10.18 57.52 10.14C57.59 10.09 57.65 10 57.71 9.87L57.88 9.52L56.29 5.98L57.12 5.98L58.24 8.65L58.28 8.65L59.41 5.98L60.24 5.98L58.41 10.03C58.27 10.33 58.11 10.55 57.92 10.69C57.73 10.83 57.51 10.9 57.25 10.9Z" fill="#FFFFFF" fill-opacity="1.000000" fill-rule="nonzero"/>
		<path id="Vector" d="M60.89 5.98L64.46 5.98L64.46 10.79L63.71 10.79L63.71 6.7L61.64 6.7L61.64 10.79L60.89 10.79L60.89 5.98Z" fill="#FFFFFF" fill-opacity="1.000000" fill-rule="nonzero"/>
		<path id="Vector" d="M65.56 5.98L66.3 5.98L66.3 7.98L68.53 7.98L68.53 5.98L69.27 5.98L69.27 10.79L68.53 10.79L68.53 8.69L66.3 8.69L66.3 10.79L65.56 10.79L65.56 5.98Z" fill="#FFFFFF" fill-opacity="1.000000" fill-rule="nonzero"/>
		<path id="Vector" d="M72.55 10.9C72.08 10.9 71.66 10.79 71.28 10.57C70.9 10.35 70.6 10.04 70.38 9.66C70.17 9.27 70.06 8.85 70.06 8.39C70.06 7.93 70.17 7.51 70.38 7.13C70.6 6.74 70.9 6.44 71.28 6.21C71.66 5.99 72.08 5.88 72.55 5.88C73.01 5.88 73.43 5.99 73.8 6.21C74.18 6.44 74.48 6.74 74.7 7.13C74.92 7.51 75.03 7.93 75.03 8.39C75.03 8.85 74.92 9.27 74.7 9.66C74.49 10.04 74.19 10.35 73.81 10.57C73.43 10.79 73.01 10.9 72.55 10.9ZM72.55 10.18C72.86 10.18 73.15 10.11 73.42 9.95C73.68 9.8 73.89 9.59 74.04 9.32C74.19 9.05 74.27 8.74 74.27 8.39C74.27 8.04 74.19 7.73 74.04 7.46C73.89 7.19 73.68 6.98 73.42 6.82C73.15 6.67 72.86 6.59 72.55 6.59C72.23 6.59 71.94 6.67 71.67 6.82C71.41 6.98 71.2 7.19 71.05 7.46C70.89 7.73 70.82 8.04 70.82 8.39C70.82 8.74 70.89 9.05 71.05 9.32C71.2 9.59 71.41 9.8 71.67 9.95C71.94 10.11 72.23 10.18 72.55 10.18Z" fill="#FFFFFF" fill-opacity="1.000000" fill-rule="nonzero"/>
		<path id="Vector" d="M77.46 5.98L79.26 5.98C79.51 5.98 79.75 6.04 79.96 6.15C80.18 6.26 80.35 6.42 80.48 6.61C80.61 6.81 80.68 7.03 80.68 7.27C80.68 7.5 80.62 7.71 80.5 7.89C80.38 8.06 80.23 8.19 80.03 8.28L80.03 8.32C80.27 8.41 80.47 8.55 80.62 8.75C80.77 8.94 80.84 9.17 80.84 9.44C80.84 9.7 80.77 9.94 80.64 10.14C80.5 10.35 80.32 10.51 80.09 10.63C79.86 10.74 79.61 10.79 79.34 10.79L77.46 10.79L77.46 5.98ZM79.22 8C79.44 8 79.61 7.93 79.74 7.8C79.87 7.66 79.94 7.51 79.94 7.33C79.94 7.16 79.87 7.01 79.75 6.88C79.62 6.74 79.46 6.68 79.25 6.68L78.21 6.68L78.21 8L79.22 8ZM79.34 10.1C79.56 10.1 79.75 10.02 79.88 9.88C80.02 9.74 80.09 9.57 80.09 9.38C80.09 9.19 80.02 9.03 79.87 8.89C79.73 8.74 79.55 8.67 79.31 8.67L78.21 8.67L78.21 10.1L79.34 10.1Z" fill="#FFFFFF" fill-opacity="1.000000" fill-rule="nonzero"/>
		<path id="Vector" d="M25.51 21.85C28.37 20.26 30.55 19.05 30.73 18.95C31.33 18.63 31.95 17.78 30.73 17.11C30.34 16.91 28.22 15.73 25.51 14.21L21.74 18.06L25.51 21.85Z" fill="#FFD900" fill-opacity="1.000000" fill-rule="nonzero"/>
		<path id="Vector" d="M21.74 18.06L9.76 30.3C10.04 30.33 10.36 30.26 10.73 30.05C11.52 29.61 19.85 25 25.51 21.86L21.74 18.06Z" fill="#F43249" fill-opacity="1.000000" fill-rule="nonzero"/>
		<path id="Vector" d="M21.74 18.06L25.51 14.23C25.51 14.23 11.58 6.53 10.73 6.08C10.42 5.88 10.06 5.83 9.74 5.88L21.74 18.06Z" fill="#00EE76" fill-opacity="1.000000" fill-rule="nonzero"/>
		<path id="Vector" d="M21.74 18.06L9.74 5.88C9.25 6 8.84 6.43 8.84 7.33L8.84 28.85C8.84 29.67 9.16 30.26 9.76 30.31L21.74 18.06L21.74 18.06Z" fill="#00D3FF" fill-opacity="1.000000" fill-rule="nonzero"/>
	</g>
</svg>
